<?xml version="1.0" encoding="UTF-8" standalone="no"?>
<!DOCTYPE svg PUBLIC "-//W3C//DTD SVG 1.1//EN"
 "http://www.w3.org/Graphics/SVG/1.1/DTD/svg11.dtd">
<!-- Generated by graphviz version 2.40.1 (20161225.0304)
 -->
<!-- Title: dependency&#45;cruiser output Pages: 1 -->
<svg width="441pt" height="438pt"
 viewBox="0.00 0.00 441.00 437.87" xmlns="http://www.w3.org/2000/svg" xmlns:xlink="http://www.w3.org/1999/xlink">
<g id="graph0" class="graph" transform="scale(1 1) rotate(0) translate(4 433.8653)">
<title>dependency&#45;cruiser output</title>
<polygon fill="#ffffff" stroke="transparent" points="-4,4 -4,-433.8653 437,-433.8653 437,4 -4,4"/>
<g id="clust1" class="cluster">
<title>cluster_src</title>
<path fill="#ffffff" stroke="#000000" stroke-width="2" d="M20,-63.3961C20,-63.3961 359,-63.3961 359,-63.3961 365,-63.3961 371,-69.3961 371,-75.3961 371,-75.3961 371,-295.3961 371,-295.3961 371,-301.3961 365,-307.3961 359,-307.3961 359,-307.3961 20,-307.3961 20,-307.3961 14,-307.3961 8,-301.3961 8,-295.3961 8,-295.3961 8,-75.3961 8,-75.3961 8,-69.3961 14,-63.3961 20,-63.3961"/>
<text text-anchor="middle" x="189.5" y="-296.1961" font-family="Helvetica,sans-Serif" font-weight="bold" font-size="9.00" fill="#000000">src</text>
</g>
<!-- child_process -->
<g id="node1" class="node">
<title>child_process</title>
<path fill="#ffffcc" stroke="#c0c0c0" d="M250.5,-55.3961C250.5,-55.3961 185.5,-55.3961 185.5,-55.3961 182.5,-55.3961 179.5,-52.3961 179.5,-49.3961 179.5,-49.3961 179.5,-43.3961 179.5,-43.3961 179.5,-40.3961 182.5,-37.3961 185.5,-37.3961 185.5,-37.3961 250.5,-37.3961 250.5,-37.3961 253.5,-37.3961 256.5,-40.3961 256.5,-43.3961 256.5,-43.3961 256.5,-49.3961 256.5,-49.3961 256.5,-52.3961 253.5,-55.3961 250.5,-55.3961"/>
<text text-anchor="middle" x="218" y="-44.1961" font-family="Helvetica,sans-Serif" font-size="9.00" fill="#c0c0c0">child_process</text>
</g>
<!-- crypto -->
<g id="node2" class="node">
<title>crypto</title>
<path fill="#ffffcc" stroke="#c0c0c0" d="M345,-333.3961C345,-333.3961 303,-333.3961 303,-333.3961 300,-333.3961 297,-330.3961 297,-327.3961 297,-327.3961 297,-321.3961 297,-321.3961 297,-318.3961 300,-315.3961 303,-315.3961 303,-315.3961 345,-315.3961 345,-315.3961 348,-315.3961 351,-318.3961 351,-321.3961 351,-321.3961 351,-327.3961 351,-327.3961 351,-330.3961 348,-333.3961 345,-333.3961"/>
<text text-anchor="middle" x="324" y="-322.1961" font-family="Helvetica,sans-Serif" font-size="9.00" fill="#c0c0c0">crypto</text>
</g>
<!-- fs -->
<g id="node3" class="node">
<title>fs</title>
<path fill="#ffffcc" stroke="#c0c0c0" d="M427,-105.3961C427,-105.3961 385,-105.3961 385,-105.3961 382,-105.3961 379,-102.3961 379,-99.3961 379,-99.3961 379,-93.3961 379,-93.3961 379,-90.3961 382,-87.3961 385,-87.3961 385,-87.3961 427,-87.3961 427,-87.3961 430,-87.3961 433,-90.3961 433,-93.3961 433,-93.3961 433,-99.3961 433,-99.3961 433,-102.3961 430,-105.3961 427,-105.3961"/>
<text text-anchor="middle" x="406" y="-94.1961" font-family="Helvetica,sans-Serif" font-size="9.00" fill="#c0c0c0">fs</text>
</g>
<!-- path -->
<g id="node4" class="node">
<title>path</title>
<path fill="#ffffcc" stroke="#c0c0c0" d="M427,-295.3961C427,-295.3961 385,-295.3961 385,-295.3961 382,-295.3961 379,-292.3961 379,-289.3961 379,-289.3961 379,-283.3961 379,-283.3961 379,-280.3961 382,-277.3961 385,-277.3961 385,-277.3961 427,-277.3961 427,-277.3961 430,-277.3961 433,-280.3961 433,-283.3961 433,-283.3961 433,-289.3961 433,-289.3961 433,-292.3961 430,-295.3961 427,-295.3961"/>
<text text-anchor="middle" x="406" y="-284.1961" font-family="Helvetica,sans-Serif" font-size="9.00" fill="#c0c0c0">path</text>
</g>
<!-- src/cache.ts -->
<g id="node5" class="node">
<title>src/cache.ts</title>
<g id="a_node5"><a xlink:href="https://github.com/dragonman225/notablog/tree/master/src/cache.ts" xlink:title="cache.ts">
<path fill="#ddfeff" stroke="#000000" d="M239.5,-267.3961C239.5,-267.3961 196.5,-267.3961 196.5,-267.3961 193.5,-267.3961 190.5,-264.3961 190.5,-261.3961 190.5,-261.3961 190.5,-255.3961 190.5,-255.3961 190.5,-252.3961 193.5,-249.3961 196.5,-249.3961 196.5,-249.3961 239.5,-249.3961 239.5,-249.3961 242.5,-249.3961 245.5,-252.3961 245.5,-255.3961 245.5,-255.3961 245.5,-261.3961 245.5,-261.3961 245.5,-264.3961 242.5,-267.3961 239.5,-267.3961"/>
<text text-anchor="middle" x="218" y="-256.1961" font-family="Helvetica,sans-Serif" font-size="9.00" fill="#000000">cache.ts</text>
</a>
</g>
</g>
<!-- src/cache.ts&#45;&gt;crypto -->
<g id="edge2" class="edge">
<title>src/cache.ts&#45;&gt;crypto</title>
<path fill="none" stroke="#000000" stroke-dasharray="5,2" stroke-opacity="0.200000" d="M227.7373,-267.5794C240.1883,-278.9204 262.803,-298.2026 285,-310.3961 286.9428,-311.4633 288.9829,-312.4764 291.0687,-313.433"/>
<polygon fill="#000000" fill-opacity="0.200000" stroke="#000000" stroke-opacity="0.200000" points="290.3195,-315.3966 296.6615,-315.8315 291.9749,-311.5366 290.3195,-315.3966"/>
</g>
<!-- src/cache.ts&#45;&gt;fs -->
<g id="edge3" class="edge">
<title>src/cache.ts&#45;&gt;fs</title>
<path fill="none" stroke="#000000" stroke-dasharray="5,2" stroke-opacity="0.200000" d="M245.6596,-256.7398C255.2829,-254.7626 265.3276,-250.8739 272,-243.3961 296.567,-215.8635 260.8943,-189.3334 285,-161.3961 311.1715,-131.0647 337.1716,-155.8572 371,-134.3961 380.7226,-128.2279 389.4955,-118.6902 395.8262,-110.7135"/>
<polygon fill="#000000" fill-opacity="0.200000" stroke="#000000" stroke-opacity="0.200000" points="397.8325,-111.5457 399.8005,-105.5011 394.4925,-108.9991 397.8325,-111.5457"/>
</g>
<!-- src/cache.ts&#45;&gt;path -->
<g id="edge4" class="edge">
<title>src/cache.ts&#45;&gt;path</title>
<path fill="none" stroke="#000000" stroke-dasharray="5,2" stroke-opacity="0.200000" d="M222.1148,-267.4203C230.7804,-285.1771 252.8003,-324.2427 285,-339.3961 319.584,-355.6714 337.3399,-357.5051 371,-339.3961 385.8541,-331.4046 395.4532,-314.04 400.7738,-301.3571"/>
<polygon fill="#000000" fill-opacity="0.200000" stroke="#000000" stroke-opacity="0.200000" points="402.8083,-301.9211 403.0462,-295.5686 398.8988,-300.3862 402.8083,-301.9211"/>
</g>
<!-- src/utils.ts -->
<g id="node6" class="node">
<title>src/utils.ts</title>
<g id="a_node6"><a xlink:href="https://github.com/dragonman225/notablog/tree/master/src/utils.ts" xlink:title="utils.ts">
<path fill="#ddfeff" stroke="#000000" d="M345,-215.3961C345,-215.3961 303,-215.3961 303,-215.3961 300,-215.3961 297,-212.3961 297,-209.3961 297,-209.3961 297,-203.3961 297,-203.3961 297,-200.3961 300,-197.3961 303,-197.3961 303,-197.3961 345,-197.3961 345,-197.3961 348,-197.3961 351,-200.3961 351,-203.3961 351,-203.3961 351,-209.3961 351,-209.3961 351,-212.3961 348,-215.3961 345,-215.3961"/>
<text text-anchor="middle" x="324" y="-204.1961" font-family="Helvetica,sans-Serif" font-size="9.00" fill="#000000">utils.ts</text>
</a>
</g>
</g>
<!-- src/cache.ts&#45;&gt;src/utils.ts -->
<g id="edge1" class="edge">
<title>src/cache.ts&#45;&gt;src/utils.ts</title>
<path fill="none" stroke="#000000" stroke-width="2" stroke-opacity="0.200000" d="M245.5856,-252.7047C254.2695,-250.398 263.7433,-247.3305 272,-243.3961 285.2874,-237.0643 298.7871,-227.3406 308.7007,-219.4503"/>
<polygon fill="#000000" fill-opacity="0.200000" stroke="#000000" stroke-width="2" stroke-opacity="0.200000" points="310.2062,-220.9328 313.5379,-215.5189 307.5573,-217.6735 310.2062,-220.9328"/>
</g>
<!-- src/utils.ts&#45;&gt;fs -->
<g id="edge35" class="edge">
<title>src/utils.ts&#45;&gt;fs</title>
<path fill="none" stroke="#000000" stroke-dasharray="5,2" stroke-opacity="0.200000" d="M351.1211,-202.2275C358.2986,-200.008 365.5542,-196.6071 371,-191.3961 393.4601,-169.9043 401.5917,-132.7661 404.4728,-111.858"/>
<polygon fill="#000000" fill-opacity="0.200000" stroke="#000000" stroke-opacity="0.200000" points="406.5844,-111.8925 405.2353,-105.6804 402.4161,-111.3779 406.5844,-111.8925"/>
</g>
<!-- src/utils.ts&#45;&gt;path -->
<g id="edge36" class="edge">
<title>src/utils.ts&#45;&gt;path</title>
<path fill="none" stroke="#000000" stroke-dasharray="5,2" stroke-opacity="0.200000" d="M351.1209,-213.177C358.1359,-215.8494 365.3078,-219.4905 371,-224.3961 385.6154,-236.9918 395.42,-257.2779 400.8468,-271.1932"/>
<polygon fill="#000000" fill-opacity="0.200000" stroke="#000000" stroke-opacity="0.200000" points="398.9777,-272.193 403.0336,-277.0879 402.9155,-270.7321 398.9777,-272.193"/>
</g>
<!-- src/config.ts -->
<g id="node7" class="node">
<title>src/config.ts</title>
<g id="a_node7"><a xlink:href="https://github.com/dragonman225/notablog/tree/master/src/config.ts" xlink:title="config.ts">
<path fill="#ddfeff" stroke="#000000" d="M240,-103.3961C240,-103.3961 196,-103.3961 196,-103.3961 193,-103.3961 190,-100.3961 190,-97.3961 190,-97.3961 190,-91.3961 190,-91.3961 190,-88.3961 193,-85.3961 196,-85.3961 196,-85.3961 240,-85.3961 240,-85.3961 243,-85.3961 246,-88.3961 246,-91.3961 246,-91.3961 246,-97.3961 246,-97.3961 246,-100.3961 243,-103.3961 240,-103.3961"/>
<text text-anchor="middle" x="218" y="-92.1961" font-family="Helvetica,sans-Serif" font-size="9.00" fill="#000000">config.ts</text>
</a>
</g>
</g>
<!-- src/config.ts&#45;&gt;fs -->
<g id="edge6" class="edge">
<title>src/config.ts&#45;&gt;fs</title>
<path fill="none" stroke="#000000" stroke-dasharray="5,2" stroke-opacity="0.200000" d="M231.1263,-85.3711C244.1322,-77.0183 264.956,-65.1908 285,-60.3961 322.1734,-51.5037 335.7911,-45.5207 371,-60.3961 381.4386,-64.8062 390.3011,-74.0208 396.4963,-82.023"/>
<polygon fill="#000000" fill-opacity="0.200000" stroke="#000000" stroke-opacity="0.200000" points="395.1117,-83.6878 400.3458,-87.2953 398.5038,-81.2112 395.1117,-83.6878"/>
</g>
<!-- src/config.ts&#45;&gt;src/utils.ts -->
<g id="edge5" class="edge">
<title>src/config.ts&#45;&gt;src/utils.ts</title>
<path fill="none" stroke="#000000" stroke-width="2" stroke-opacity="0.200000" d="M246.2206,-96.1697C255.6717,-98.1819 265.4572,-102.0635 272,-109.3961 296.567,-136.9286 261.7856,-162.7138 285,-191.3961 286.8427,-193.6727 289.0742,-195.6044 291.5261,-197.2432"/>
<polygon fill="#000000" fill-opacity="0.200000" stroke="#000000" stroke-width="2" stroke-opacity="0.200000" points="290.5545,-199.1061 296.8144,-200.2126 292.6109,-195.4439 290.5545,-199.1061"/>
</g>
<!-- src/generate.ts -->
<g id="node8" class="node">
<title>src/generate.ts</title>
<g id="a_node8"><a xlink:href="https://github.com/dragonman225/notablog/tree/master/src/generate.ts" xlink:title="generate.ts">
<path fill="#ddfeff" stroke="#000000" d="M145,-174.3961C145,-174.3961 89,-174.3961 89,-174.3961 86,-174.3961 83,-171.3961 83,-168.3961 83,-168.3961 83,-162.3961 83,-162.3961 83,-159.3961 86,-156.3961 89,-156.3961 89,-156.3961 145,-156.3961 145,-156.3961 148,-156.3961 151,-159.3961 151,-162.3961 151,-162.3961 151,-168.3961 151,-168.3961 151,-171.3961 148,-174.3961 145,-174.3961"/>
<text text-anchor="middle" x="117" y="-163.1961" font-family="Helvetica,sans-Serif" font-size="9.00" fill="#000000">generate.ts</text>
</a>
</g>
</g>
<!-- src/generate.ts&#45;&gt;fs -->
<g id="edge15" class="edge">
<title>src/generate.ts&#45;&gt;fs</title>
<path fill="none" stroke="#000000" stroke-dasharray="5,2" stroke-opacity="0.200000" d="M118.7987,-156.2208C124.4397,-128.4876 142.6817,-46.5103 164,-31.3961 239.304,21.9931 292.5659,.2781 371,-48.3961 383.8353,-56.3613 393.4405,-70.9247 399.3102,-81.9287"/>
<polygon fill="#000000" fill-opacity="0.200000" stroke="#000000" stroke-opacity="0.200000" points="397.4498,-82.9034 402.0365,-87.3049 401.1957,-81.0038 397.4498,-82.9034"/>
</g>
<!-- src/generate.ts&#45;&gt;path -->
<g id="edge16" class="edge">
<title>src/generate.ts&#45;&gt;path</title>
<path fill="none" stroke="#000000" stroke-dasharray="5,2" stroke-opacity="0.200000" d="M144.8111,-174.5594C147.1611,-176.2018 149.2886,-178.1312 151,-180.3961 176.1609,-213.694 141.9354,-237.9703 164,-273.3961 198.3448,-328.5384 222.8959,-336.3349 285,-355.3961 321.5399,-366.611 338.4283,-375.3966 371,-355.3961 389.9975,-343.7307 399.0732,-318.1894 403.1071,-301.6673"/>
<polygon fill="#000000" fill-opacity="0.200000" stroke="#000000" stroke-opacity="0.200000" points="405.1998,-301.9315 404.4585,-295.618 401.1008,-301.0158 405.1998,-301.9315"/>
</g>
<!-- src/generate.ts&#45;&gt;src/cache.ts -->
<g id="edge7" class="edge">
<title>src/generate.ts&#45;&gt;src/cache.ts</title>
<path fill="none" stroke="#000000" stroke-width="2" stroke-opacity="0.200000" d="M144.3368,-174.4563C146.8429,-176.1239 149.1353,-178.0873 151,-180.3961 168.9638,-202.6376 144.4771,-222.5097 164,-243.3961 169.4005,-249.1737 176.8153,-252.7946 184.421,-255.0459"/>
<polygon fill="#000000" fill-opacity="0.200000" stroke="#000000" stroke-width="2" stroke-opacity="0.200000" points="183.9127,-257.0834 190.244,-256.5136 184.9392,-253.0108 183.9127,-257.0834"/>
</g>
<!-- src/generate.ts&#45;&gt;src/utils.ts -->
<g id="edge14" class="edge">
<title>src/generate.ts&#45;&gt;src/utils.ts</title>
<path fill="none" stroke="#000000" stroke-width="2" stroke-opacity="0.200000" d="M151.0939,-168.5655C193.2608,-172.6083 260.8654,-179.5369 272,-183.3961 278.4101,-185.6177 278.9193,-188.3878 285,-191.3961 287.548,-192.6566 290.2299,-193.8828 292.9448,-195.0554"/>
<polygon fill="#000000" fill-opacity="0.200000" stroke="#000000" stroke-width="2" stroke-opacity="0.200000" points="292.1855,-197.014 298.5318,-197.3814 293.7998,-193.1366 292.1855,-197.014"/>
</g>
<!-- src/generate.ts&#45;&gt;src/config.ts -->
<g id="edge8" class="edge">
<title>src/generate.ts&#45;&gt;src/config.ts</title>
<path fill="none" stroke="#000000" stroke-width="2" stroke-opacity="0.200000" d="M122.1394,-156.3726C129.6995,-143.9195 145.0004,-121.6212 164,-109.3961 170.009,-105.5296 177.0142,-102.6471 183.9496,-100.5022"/>
<polygon fill="#000000" fill-opacity="0.200000" stroke="#000000" stroke-width="2" stroke-opacity="0.200000" points="184.5319,-102.5199 189.7354,-98.8685 183.3905,-98.478 184.5319,-102.5199"/>
</g>
<!-- src/notion&#45;utils.ts -->
<g id="node9" class="node">
<title>src/notion&#45;utils.ts</title>
<g id="a_node9"><a xlink:href="https://github.com/dragonman225/notablog/tree/master/src/notion-utils.ts" xlink:title="notion&#45;utils.ts">
<path fill="#ddfeff" stroke="#000000" d="M357,-185.3961C357,-185.3961 291,-185.3961 291,-185.3961 288,-185.3961 285,-182.3961 285,-179.3961 285,-179.3961 285,-173.3961 285,-173.3961 285,-170.3961 288,-167.3961 291,-167.3961 291,-167.3961 357,-167.3961 357,-167.3961 360,-167.3961 363,-170.3961 363,-173.3961 363,-173.3961 363,-179.3961 363,-179.3961 363,-182.3961 360,-185.3961 357,-185.3961"/>
<text text-anchor="middle" x="324" y="-174.1961" font-family="Helvetica,sans-Serif" font-size="9.00" fill="#000000">notion&#45;utils.ts</text>
</a>
</g>
</g>
<!-- src/generate.ts&#45;&gt;src/notion&#45;utils.ts -->
<g id="edge9" class="edge">
<title>src/generate.ts&#45;&gt;src/notion&#45;utils.ts</title>
<path fill="none" stroke="#000000" stroke-width="2" stroke-opacity="0.200000" d="M118.8082,-156.2416C123.004,-137.782 135.3163,-96.4078 164,-79.3961 184.6426,-67.1533 251.407,-67.0702 272,-79.3961 301.8441,-97.2591 315.5378,-138.7625 320.9596,-161.2552"/>
<polygon fill="#000000" fill-opacity="0.200000" stroke="#000000" stroke-width="2" stroke-opacity="0.200000" points="318.9592,-161.9304 322.3309,-167.3194 323.0557,-161.004 318.9592,-161.9304"/>
</g>
<!-- src/parse&#45;table.ts -->
<g id="node10" class="node">
<title>src/parse&#45;table.ts</title>
<g id="a_node10"><a xlink:href="https://github.com/dragonman225/notablog/tree/master/src/parse-table.ts" xlink:title="parse&#45;table.ts">
<path fill="#ddfeff" stroke="#000000" d="M251,-163.3961C251,-163.3961 185,-163.3961 185,-163.3961 182,-163.3961 179,-160.3961 179,-157.3961 179,-157.3961 179,-151.3961 179,-151.3961 179,-148.3961 182,-145.3961 185,-145.3961 185,-145.3961 251,-145.3961 251,-145.3961 254,-145.3961 257,-148.3961 257,-151.3961 257,-151.3961 257,-157.3961 257,-157.3961 257,-160.3961 254,-163.3961 251,-163.3961"/>
<text text-anchor="middle" x="218" y="-152.1961" font-family="Helvetica,sans-Serif" font-size="9.00" fill="#000000">parse&#45;table.ts</text>
</a>
</g>
</g>
<!-- src/generate.ts&#45;&gt;src/parse&#45;table.ts -->
<g id="edge10" class="edge">
<title>src/generate.ts&#45;&gt;src/parse&#45;table.ts</title>
<path fill="none" stroke="#000000" stroke-width="2" stroke-opacity="0.200000" d="M151.194,-161.672C158.1687,-160.9123 165.6083,-160.1021 172.8962,-159.3084"/>
<polygon fill="#000000" fill-opacity="0.200000" stroke="#000000" stroke-width="2" stroke-opacity="0.200000" points="173.2315,-161.3843 178.9688,-158.647 172.7767,-157.209 173.2315,-161.3843"/>
</g>
<!-- src/render&#45;index.ts -->
<g id="node11" class="node">
<title>src/render&#45;index.ts</title>
<g id="a_node11"><a xlink:href="https://github.com/dragonman225/notablog/tree/master/src/render-index.ts" xlink:title="render&#45;index.ts">
<path fill="#ddfeff" stroke="#000000" d="M254.5,-207.3961C254.5,-207.3961 181.5,-207.3961 181.5,-207.3961 178.5,-207.3961 175.5,-204.3961 175.5,-201.3961 175.5,-201.3961 175.5,-195.3961 175.5,-195.3961 175.5,-192.3961 178.5,-189.3961 181.5,-189.3961 181.5,-189.3961 254.5,-189.3961 254.5,-189.3961 257.5,-189.3961 260.5,-192.3961 260.5,-195.3961 260.5,-195.3961 260.5,-201.3961 260.5,-201.3961 260.5,-204.3961 257.5,-207.3961 254.5,-207.3961"/>
<text text-anchor="middle" x="218" y="-196.1961" font-family="Helvetica,sans-Serif" font-size="9.00" fill="#000000">render&#45;index.ts</text>
</a>
</g>
</g>
<!-- src/generate.ts&#45;&gt;src/render&#45;index.ts -->
<g id="edge11" class="edge">
<title>src/generate.ts&#45;&gt;src/render&#45;index.ts</title>
<path fill="none" stroke="#000000" stroke-width="2" stroke-opacity="0.200000" d="M144.5987,-174.4135C156.9572,-178.4514 171.6372,-183.2478 184.6092,-187.4862"/>
<polygon fill="#000000" fill-opacity="0.200000" stroke="#000000" stroke-width="2" stroke-opacity="0.200000" points="184.0791,-189.5222 190.4347,-189.3896 185.3836,-185.5299 184.0791,-189.5222"/>
</g>
<!-- src/render&#45;post.ts -->
<g id="node12" class="node">
<title>src/render&#45;post.ts</title>
<g id="a_node12"><a xlink:href="https://github.com/dragonman225/notablog/tree/master/src/render-post.ts" xlink:title="render&#45;post.ts">
<path fill="#ddfeff" stroke="#000000" d="M252,-133.3961C252,-133.3961 184,-133.3961 184,-133.3961 181,-133.3961 178,-130.3961 178,-127.3961 178,-127.3961 178,-121.3961 178,-121.3961 178,-118.3961 181,-115.3961 184,-115.3961 184,-115.3961 252,-115.3961 252,-115.3961 255,-115.3961 258,-118.3961 258,-121.3961 258,-121.3961 258,-127.3961 258,-127.3961 258,-130.3961 255,-133.3961 252,-133.3961"/>
<text text-anchor="middle" x="218" y="-122.1961" font-family="Helvetica,sans-Serif" font-size="9.00" fill="#000000">render&#45;post.ts</text>
</a>
</g>
</g>
<!-- src/generate.ts&#45;&gt;src/render&#45;post.ts -->
<g id="edge12" class="edge">
<title>src/generate.ts&#45;&gt;src/render&#45;post.ts</title>
<path fill="none" stroke="#000000" stroke-width="2" stroke-opacity="0.200000" d="M131.3794,-156.284C140.4667,-150.8214 152.6065,-144.0544 164,-139.3961 167.5462,-137.9462 171.279,-136.5874 175.0572,-135.3261"/>
<polygon fill="#000000" fill-opacity="0.200000" stroke="#000000" stroke-width="2" stroke-opacity="0.200000" points="175.9342,-137.2506 181.0112,-133.4251 174.6568,-133.2496 175.9342,-137.2506"/>
</g>
<!-- src/template&#45;provider.ts -->
<g id="node13" class="node">
<title>src/template&#45;provider.ts</title>
<g id="a_node13"><a xlink:href="https://github.com/dragonman225/notablog/tree/master/src/template-provider.ts" xlink:title="template&#45;provider.ts">
<path fill="#ddfeff" stroke="#000000" d="M266,-237.3961C266,-237.3961 170,-237.3961 170,-237.3961 167,-237.3961 164,-234.3961 164,-231.3961 164,-231.3961 164,-225.3961 164,-225.3961 164,-222.3961 167,-219.3961 170,-219.3961 170,-219.3961 266,-219.3961 266,-219.3961 269,-219.3961 272,-222.3961 272,-225.3961 272,-225.3961 272,-231.3961 272,-231.3961 272,-234.3961 269,-237.3961 266,-237.3961"/>
<text text-anchor="middle" x="218" y="-226.1961" font-family="Helvetica,sans-Serif" font-size="9.00" fill="#000000">template&#45;provider.ts</text>
</a>
</g>
</g>
<!-- src/generate.ts&#45;&gt;src/template&#45;provider.ts -->
<g id="edge13" class="edge">
<title>src/generate.ts&#45;&gt;src/template&#45;provider.ts</title>
<path fill="none" stroke="#000000" stroke-width="2" stroke-opacity="0.200000" d="M143.6136,-174.5887C146.3186,-176.2395 148.8547,-178.1627 151,-180.3961 161.9202,-191.7646 152.2874,-202.8458 164,-213.3961 165.0279,-214.322 166.1083,-215.1913 167.232,-216.0075"/>
<polygon fill="#000000" fill-opacity="0.200000" stroke="#000000" stroke-width="2" stroke-opacity="0.200000" points="166.2108,-217.8459 172.4093,-219.2563 168.4433,-214.2883 166.2108,-217.8459"/>
</g>
<!-- src/parse&#45;table.ts&#45;&gt;src/utils.ts -->
<g id="edge20" class="edge">
<title>src/parse&#45;table.ts&#45;&gt;src/utils.ts</title>
<path fill="none" stroke="#000000" stroke-width="2" stroke-opacity="0.200000" d="M255.8862,-163.4984C261.6024,-165.8438 267.1875,-168.766 272,-172.3961 280.1686,-178.5576 276.9734,-185.0505 285,-191.3961 286.9847,-192.9651 289.1524,-194.385 291.4164,-195.6673"/>
<polygon fill="#000000" fill-opacity="0.200000" stroke="#000000" stroke-width="2" stroke-opacity="0.200000" points="290.5323,-197.5735 296.8333,-198.415 292.4323,-193.8278 290.5323,-197.5735"/>
</g>
<!-- src/parse&#45;table.ts&#45;&gt;src/notion&#45;utils.ts -->
<g id="edge19" class="edge">
<title>src/parse&#45;table.ts&#45;&gt;src/notion&#45;utils.ts</title>
<path fill="none" stroke="#000000" stroke-width="2" stroke-opacity="0.200000" d="M257.1693,-162.5255C264.2648,-163.9982 271.7159,-165.5446 278.9636,-167.0489"/>
<polygon fill="#000000" fill-opacity="0.200000" stroke="#000000" stroke-width="2" stroke-opacity="0.200000" points="278.6901,-169.1368 284.9917,-168.3 279.5436,-165.0244 278.6901,-169.1368"/>
</g>
<!-- src/render&#45;index.ts&#45;&gt;fs -->
<g id="edge26" class="edge">
<title>src/render&#45;index.ts&#45;&gt;fs</title>
<path fill="none" stroke="#000000" stroke-dasharray="5,2" stroke-opacity="0.200000" d="M245.131,-189.3063C254.9271,-184.7592 265.2282,-178.2836 272,-169.3961 287.7478,-148.728 265.7945,-129.8977 285,-112.3961 308.3444,-91.1226 345.5232,-89.1974 372.5132,-91.3016"/>
<polygon fill="#000000" fill-opacity="0.200000" stroke="#000000" stroke-opacity="0.200000" points="372.6289,-93.421 378.7956,-91.8775 373.0124,-89.2385 372.6289,-93.421"/>
</g>
<!-- src/render&#45;index.ts&#45;&gt;path -->
<g id="edge27" class="edge">
<title>src/render&#45;index.ts&#45;&gt;path</title>
<path fill="none" stroke="#000000" stroke-dasharray="5,2" stroke-opacity="0.200000" d="M260.617,-206.1435C264.7472,-208.057 268.642,-210.437 272,-213.3961 283.2091,-223.2736 273.9567,-234.3335 285,-244.3961 314.6123,-271.3785 333.43,-257.4879 371,-271.3961 373.8713,-272.459 376.8491,-273.6282 379.801,-274.8306"/>
<polygon fill="#000000" fill-opacity="0.200000" stroke="#000000" stroke-opacity="0.200000" points="379.4351,-276.953 385.7814,-277.3215 381.0501,-273.0759 379.4351,-276.953"/>
</g>
<!-- src/render&#45;index.ts&#45;&gt;src/utils.ts -->
<g id="edge25" class="edge">
<title>src/render&#45;index.ts&#45;&gt;src/utils.ts</title>
<path fill="none" stroke="#000000" stroke-width="2" stroke-opacity="0.200000" d="M260.5035,-201.6039C270.5201,-202.3598 281.0577,-203.1551 290.6069,-203.8758"/>
<polygon fill="#000000" fill-opacity="0.200000" stroke="#000000" stroke-width="2" stroke-opacity="0.200000" points="290.5828,-205.9799 296.7239,-204.3375 290.899,-201.7918 290.5828,-205.9799"/>
</g>
<!-- src/render&#45;post.ts&#45;&gt;fs -->
<g id="edge30" class="edge">
<title>src/render&#45;post.ts&#45;&gt;fs</title>
<path fill="none" stroke="#000000" stroke-dasharray="5,2" stroke-opacity="0.200000" d="M258.0745,-117.1621C263.0654,-115.1711 267.861,-112.6326 272,-109.3961 281.2498,-102.163 274.858,-92.3135 285,-86.3961 313.3163,-69.8745 351.8881,-77.1192 377.8022,-85.3503"/>
<polygon fill="#000000" fill-opacity="0.200000" stroke="#000000" stroke-opacity="0.200000" points="377.4227,-87.4371 383.7788,-87.3372 378.7477,-83.4516 377.4227,-87.4371"/>
</g>
<!-- src/render&#45;post.ts&#45;&gt;path -->
<g id="edge31" class="edge">
<title>src/render&#45;post.ts&#45;&gt;path</title>
<path fill="none" stroke="#000000" stroke-dasharray="5,2" stroke-opacity="0.200000" d="M258.1976,-129.8783C263.4162,-132.1125 268.2427,-135.1853 272,-139.3961 296.567,-166.9286 260.4495,-193.8488 285,-221.3961 311.4022,-251.0211 337.5518,-224.0434 371,-245.3961 381.583,-252.152 390.6859,-263.0868 396.9536,-271.9652"/>
<polygon fill="#000000" fill-opacity="0.200000" stroke="#000000" stroke-opacity="0.200000" points="395.3754,-273.38 400.4777,-277.1717 398.8536,-271.0258 395.3754,-273.38"/>
</g>
<!-- src/render&#45;post.ts&#45;&gt;src/utils.ts -->
<g id="edge29" class="edge">
<title>src/render&#45;post.ts&#45;&gt;src/utils.ts</title>
<path fill="none" stroke="#000000" stroke-width="2" stroke-opacity="0.200000" d="M258.1446,-130.2954C263.3056,-132.4768 268.1296,-135.4238 272,-139.3961 288.6248,-156.4583 269.215,-173.554 285,-191.3961 286.7845,-193.4132 288.8717,-195.1607 291.1361,-196.6744"/>
<polygon fill="#000000" fill-opacity="0.200000" stroke="#000000" stroke-width="2" stroke-opacity="0.200000" points="290.4244,-198.6837 296.6827,-199.7989 292.4858,-195.0243 290.4244,-198.6837"/>
</g>
<!-- src/render&#45;post.ts&#45;&gt;src/notion&#45;utils.ts -->
<g id="edge28" class="edge">
<title>src/render&#45;post.ts&#45;&gt;src/notion&#45;utils.ts</title>
<path fill="none" stroke="#000000" stroke-width="2" stroke-opacity="0.200000" d="M256.9459,-133.4536C262.1119,-135.1617 267.2568,-137.1358 272,-139.3961 285.2874,-145.7278 298.7871,-155.4515 308.7007,-163.3419"/>
<polygon fill="#000000" fill-opacity="0.200000" stroke="#000000" stroke-width="2" stroke-opacity="0.200000" points="307.5573,-165.1186 313.5379,-167.2732 310.2062,-161.8593 307.5573,-165.1186"/>
</g>
<!-- src/template&#45;provider.ts&#45;&gt;fs -->
<g id="edge33" class="edge">
<title>src/template&#45;provider.ts&#45;&gt;fs</title>
<path fill="none" stroke="#000000" stroke-dasharray="5,2" stroke-opacity="0.200000" d="M264.88,-219.3423C267.4994,-217.6698 269.9104,-215.7043 272,-213.3961 294.7047,-188.3164 262.7155,-163.8498 285,-138.3961 311.3892,-108.2539 333.43,-125.3042 371,-111.3961 373.8713,-110.3331 376.8491,-109.1639 379.801,-107.9616"/>
<polygon fill="#000000" fill-opacity="0.200000" stroke="#000000" stroke-opacity="0.200000" points="381.0501,-109.7163 385.7814,-105.4706 379.4351,-105.8391 381.0501,-109.7163"/>
</g>
<!-- src/template&#45;provider.ts&#45;&gt;path -->
<g id="edge34" class="edge">
<title>src/template&#45;provider.ts&#45;&gt;path</title>
<path fill="none" stroke="#000000" stroke-dasharray="5,2" stroke-opacity="0.200000" d="M262.879,-237.4759C266.1471,-239.1311 269.2384,-241.0864 272,-243.3961 282.2164,-251.9405 274.213,-262.5843 285,-270.3961 310.2626,-288.6907 346.4785,-291.2366 372.6992,-290.0961"/>
<polygon fill="#000000" fill-opacity="0.200000" stroke="#000000" stroke-opacity="0.200000" points="372.9278,-292.1867 378.8019,-289.7569 372.6946,-287.9932 372.9278,-292.1867"/>
</g>
<!-- src/template&#45;provider.ts&#45;&gt;src/utils.ts -->
<g id="edge32" class="edge">
<title>src/template&#45;provider.ts&#45;&gt;src/utils.ts</title>
<path fill="none" stroke="#000000" stroke-width="2" stroke-opacity="0.200000" d="M261.4201,-219.3843C271.2693,-217.3402 281.5751,-215.2012 290.9152,-213.2627"/>
<polygon fill="#000000" fill-opacity="0.200000" stroke="#000000" stroke-width="2" stroke-opacity="0.200000" points="291.4511,-215.2963 296.8991,-212.0208 290.5975,-211.184 291.4511,-215.2963"/>
</g>
<!-- src/index.ts -->
<g id="node14" class="node">
<title>src/index.ts</title>
<g id="a_node14"><a xlink:href="https://github.com/dragonman225/notablog/tree/master/src/index.ts" xlink:title="index.ts">
<path fill="#ddfeff" stroke="#000000" d="M64,-189.3961C64,-189.3961 22,-189.3961 22,-189.3961 19,-189.3961 16,-186.3961 16,-183.3961 16,-183.3961 16,-177.3961 16,-177.3961 16,-174.3961 19,-171.3961 22,-171.3961 22,-171.3961 64,-171.3961 64,-171.3961 67,-171.3961 70,-174.3961 70,-177.3961 70,-177.3961 70,-183.3961 70,-183.3961 70,-186.3961 67,-189.3961 64,-189.3961"/>
<text text-anchor="middle" x="43" y="-178.1961" font-family="Helvetica,sans-Serif" font-size="9.00" fill="#000000">index.ts</text>
</a>
</g>
</g>
<!-- src/index.ts&#45;&gt;src/generate.ts -->
<g id="edge17" class="edge">
<title>src/index.ts&#45;&gt;src/generate.ts</title>
<path fill="none" stroke="#000000" stroke-width="2" stroke-opacity="0.200000" d="M70.1347,-174.8958C72.326,-174.4516 74.5672,-173.9973 76.8242,-173.5398"/>
<polygon fill="#000000" fill-opacity="0.200000" stroke="#000000" stroke-width="2" stroke-opacity="0.200000" points="77.3494,-175.5761 82.8126,-172.3259 76.5149,-171.4599 77.3494,-175.5761"/>
</g>
<!-- src/preview.ts -->
<g id="node15" class="node">
<title>src/preview.ts</title>
<g id="a_node15"><a xlink:href="https://github.com/dragonman225/notablog/tree/master/src/preview.ts" xlink:title="preview.ts">
<path fill="#ddfeff" stroke="#000000" d="M142,-204.3961C142,-204.3961 92,-204.3961 92,-204.3961 89,-204.3961 86,-201.3961 86,-198.3961 86,-198.3961 86,-192.3961 86,-192.3961 86,-189.3961 89,-186.3961 92,-186.3961 92,-186.3961 142,-186.3961 142,-186.3961 145,-186.3961 148,-189.3961 148,-192.3961 148,-192.3961 148,-198.3961 148,-198.3961 148,-201.3961 145,-204.3961 142,-204.3961"/>
<text text-anchor="middle" x="117" y="-193.1961" font-family="Helvetica,sans-Serif" font-size="9.00" fill="#000000">preview.ts</text>
</a>
</g>
</g>
<!-- src/index.ts&#45;&gt;src/preview.ts -->
<g id="edge18" class="edge">
<title>src/index.ts&#45;&gt;src/preview.ts</title>
<path fill="none" stroke="#000000" stroke-width="2" stroke-opacity="0.200000" d="M70.1347,-185.8963C73.3315,-186.5443 76.6343,-187.2138 79.9378,-187.8834"/>
<polygon fill="#000000" fill-opacity="0.200000" stroke="#000000" stroke-width="2" stroke-opacity="0.200000" points="79.5643,-189.9504 85.862,-189.0843 80.3988,-185.8341 79.5643,-189.9504"/>
</g>
<!-- src/preview.ts&#45;&gt;child_process -->
<g id="edge23" class="edge">
<title>src/preview.ts&#45;&gt;child_process</title>
<path fill="none" stroke="#000000" stroke-dasharray="5,2" stroke-opacity="0.200000" d="M144.8837,-186.2867C147.2195,-184.6338 149.3239,-182.6872 151,-180.3961 182.6746,-137.1 128.9298,-100.9905 164,-60.3961 166.7225,-57.2447 170.054,-54.757 173.713,-52.7989"/>
<polygon fill="#000000" fill-opacity="0.200000" stroke="#000000" stroke-opacity="0.200000" points="174.6672,-54.6724 179.2755,-50.2935 172.9423,-50.8429 174.6672,-54.6724"/>
</g>
<!-- src/preview.ts&#45;&gt;path -->
<g id="edge24" class="edge">
<title>src/preview.ts&#45;&gt;path</title>
<path fill="none" stroke="#000000" stroke-dasharray="5,2" stroke-opacity="0.200000" d="M117.8008,-204.8635C121.0209,-240.4096 134.3066,-365.0659 164,-388.3961 236.3417,-445.2351 296.1298,-441.8606 371,-388.3961 385.3968,-378.1154 397.6115,-327.4267 403.02,-301.5926"/>
<polygon fill="#000000" fill-opacity="0.200000" stroke="#000000" stroke-opacity="0.200000" points="405.1008,-301.899 404.2456,-295.5999 400.9859,-301.0574 405.1008,-301.899"/>
</g>
<!-- src/preview.ts&#45;&gt;src/utils.ts -->
<g id="edge22" class="edge">
<title>src/preview.ts&#45;&gt;src/utils.ts</title>
<path fill="none" stroke="#000000" stroke-width="2" stroke-opacity="0.200000" d="M119.3114,-204.5157C124.2105,-221.6756 137.4331,-258.3871 164,-273.3961 205.7918,-297.0063 228.8918,-294.5072 272,-273.3961 294.1414,-262.5529 309.5643,-237.2321 317.5855,-221.0105"/>
<polygon fill="#000000" fill-opacity="0.200000" stroke="#000000" stroke-width="2" stroke-opacity="0.200000" points="319.5302,-221.8106 320.2045,-215.4895 315.7355,-220.0105 319.5302,-221.8106"/>
</g>
<!-- src/preview.ts&#45;&gt;src/config.ts -->
<g id="edge21" class="edge">
<title>src/preview.ts&#45;&gt;src/config.ts</title>
<path fill="none" stroke="#000000" stroke-width="2" stroke-opacity="0.200000" d="M144.3892,-186.3777C146.8855,-184.7023 149.1612,-182.7256 151,-180.3961 170.876,-155.2151 142.3576,-133.076 164,-109.3961 169.1796,-103.7289 176.2964,-100.1302 183.6641,-97.8633"/>
<polygon fill="#000000" fill-opacity="0.200000" stroke="#000000" stroke-width="2" stroke-opacity="0.200000" points="184.5925,-99.7923 189.8751,-96.2561 183.5403,-95.7262 184.5925,-99.7923"/>
</g>
</g>
</svg>
